<svg xmlns="http://www.w3.org/2000/svg" version="1.1" xmlns:xlink="http://www.w3.org/1999/xlink" xmlns:svgjs="http://svgjs.dev/svgjs" width="2000" height="323" viewBox="0 0 2000 323"><g transform="matrix(1,0,0,1,-1.2121212121212466,-0.7246091504679555)"><svg viewBox="0 0 396 64" data-background-color="#ffffff" preserveAspectRatio="xMidYMid meet" height="323" width="2000" xmlns="http://www.w3.org/2000/svg" xmlns:xlink="http://www.w3.org/1999/xlink"><g id="tight-bounds" transform="matrix(1,0,0,1,0.2400000000000091,0.1435758069038684)"><svg viewBox="0 0 395.52 63.712848386192256" height="63.712848386192256" width="395.52"><g><svg viewBox="0 0 483.3758161601347 77.86521563653571" height="63.712848386192256" width="395.52"><g transform="matrix(1,0,0,1,87.85581616013474,10.761401003312823)"><svg viewBox="0 0 395.52 56.34241362991006" height="56.34241362991006" width="395.52"><g id="textblocktransform"><svg viewBox="0 0 395.52 56.34241362991006" height="56.34241362991006" width="395.52" id="textblock"><g><svg viewBox="0 0 395.52 56.34241362991006" height="56.34241362991006" width="395.52"><g transform="matrix(1,0,0,1,0,0)"><svg width="395.52" viewBox="3 -35 316.93 45.15" height="56.34241362991006" data-palette-color="url(#39bce863-a056-4f30-8b00-8c37ec4371b1)"></svg></g></svg></g></svg></g></svg></g><g><svg viewBox="0 0 74.55472452004008 77.86521563653571" height="77.86521563653571" width="74.55472452004008"><g><svg xmlns="http://www.w3.org/2000/svg" xmlns:xlink="http://www.w3.org/1999/xlink" version="1.1" x="0" y="0" viewBox="20.959999999999997 19.67 58.081 60.66" enable-background="new 0 0 100 100" xml:space="preserve" height="77.86521563653571" width="74.55472452004008" class="icon-icon-0" data-fill-palette-color="accent" id="icon-0"></svg></g></svg></g></svg></g><defs></defs><mask id="744f8608-31e9-446f-bba4-f535cf7d7c90"><g id="SvgjsG1996"><svg viewBox="0 0 395.52 63.712848386192256" height="63.712848386192256" width="395.52"><g><svg viewBox="0 0 483.3758161601347 77.86521563653571" height="63.712848386192256" width="395.52"><g transform="matrix(1,0,0,1,87.85581616013474,10.761401003312823)"><svg viewBox="0 0 395.52 56.34241362991006" height="56.34241362991006" width="395.52"><g id="SvgjsG1995"><svg viewBox="0 0 395.52 56.34241362991006" height="56.34241362991006" width="395.52" id="SvgjsSvg1994"><g><svg viewBox="0 0 395.52 56.34241362991006" height="56.34241362991006" width="395.52"><g transform="matrix(1,0,0,1,0,0)"><svg width="395.52" viewBox="3 -35 316.93 45.15" height="56.34241362991006" data-palette-color="url(#39bce863-a056-4f30-8b00-8c37ec4371b1)"><path d="M6.9-35L6.9-35 20.3-35Q22.4-35 23.08-33.95 23.75-32.9 23.98-29.63 24.2-26.35 24.2-16.93 24.2-7.5 23.8-3.1L23.8-3.1Q23.65-1.95 22.78-1.05 21.9-0.15 20.45-0.05L20.45-0.05Q17.6 0.15 13.85 0.15 10.1 0.15 6.75-0.05L6.75-0.05Q5.3-0.15 4.42-1.05 3.55-1.95 3.4-3.1L3.4-3.1Q3-7.5 3-16.93 3-26.35 3.23-29.63 3.45-32.9 4.13-33.95 4.8-35 6.9-35ZM73-2.15L73-2.15 73.05-14.35Q73.05-15.85 72.3-16.6 71.55-17.35 70.42-17.35 69.3-17.35 68.37-16.57 67.45-15.8 67.45-14.4L67.45-14.4 67.5-7.15Q67.5-3.7 67.45-2.4 67.4-1.1 66.77-0.53 66.15 0.05 64.35 0.05L64.35 0.05 54.75 0.15Q53.15 0.15 52.52-0.43 51.9-1 51.9-2.15L51.9-2.15 51.95-14.35Q51.95-15.85 51.2-16.6 50.45-17.35 49.32-17.35 48.2-17.35 47.27-16.57 46.35-15.8 46.35-14.4L46.35-14.4 46.35-11.35Q46.35-4.75 46.05-2.35L46.05-2.35Q45.9-1.5 45.2-0.85 44.5-0.2 42.72-0.08 40.95 0.05 39.2 0.05 37.45 0.05 33.25-0.15L33.25-0.15Q32.05-0.2 31.35-0.85 30.65-1.5 30.55-2.35L30.55-2.35Q30.2-5.6 30.2-12.3 30.2-19 30.4-21.48 30.6-23.95 31.15-24.7 31.7-25.45 33.4-25.45L33.4-25.45 43.15-25.45Q44.85-25.45 45.42-24.7 46-23.95 46.15-22.15L46.15-22.15 46.15-22.1Q50-26.1 55.95-26.1L55.95-26.1Q59.6-26.1 62.3-24.7 65-23.3 66.3-20.6L66.3-20.6Q67.95-23.3 70.82-24.7 73.7-26.1 77.05-26.1L77.05-26.1Q82.15-26.1 85.3-23.4 88.45-20.7 88.52-15.95 88.6-11.2 88.6-7.45 88.6-3.7 88.55-2.4 88.5-1.1 87.87-0.53 87.25 0.05 85.45 0.05L85.45 0.05 75.85 0.15Q74.25 0.15 73.62-0.43 73-1 73-2.15ZM111.7-26.25L111.7-26.25Q128-26.25 128.15-15.65L128.15-15.65Q128.25-11.15 128.25-7.4 128.25-3.65 128.2-2.35 128.15-1.05 127.52-0.48 126.9 0.1 125.1 0.1L125.1 0.1 114.5 0.1Q112.9 0.1 112.3-0.48 111.7-1.05 111.65-2.2L111.65-2.2Q111.65-2.25 111.62-2.38 111.6-2.5 111.6-2.6L111.6-2.6Q108.3 0.8 102.6 0.8L102.6 0.8Q98.65 0.8 95.87-1.18 93.1-3.15 93.1-6.63 93.1-10.1 95.07-12.18 97.05-14.25 99.77-15 102.5-15.75 105.62-15.75 108.75-15.75 111.75-15.15L111.75-15.15 111.75-15.35Q111.75-17.85 110.77-18.95 109.8-20.05 107.62-20.05 105.45-20.05 104-19.68 102.55-19.3 101.8-18.9L101.8-18.9Q99.75-17.7 98.95-17.7 98.15-17.7 97.52-18.45 96.9-19.2 96.9-20.78 96.9-22.35 97.47-22.95 98.05-23.55 99.3-24.15L99.3-24.15Q103.65-26.25 111.7-26.25ZM109.35-5.8L109.35-5.8Q111.55-5.8 111.6-6.65L111.6-6.65Q111.7-8.3 111.7-11L111.7-11Q111.7-12.05 110.1-12.05 108.5-12.05 107.5-11.28 106.5-10.5 106.5-9 106.5-7.5 107.32-6.65 108.15-5.8 109.35-5.8ZM150.64-17.8L150.64-17.8Q147.69-17.8 147.69-13.48 147.69-9.15 150.54-9.15L150.54-9.15Q151.79-9.15 152.72-9.83 153.64-10.5 153.64-11.75L153.64-11.75 153.64-15.2Q153.64-16.4 152.72-17.1 151.79-17.8 150.64-17.8ZM169.44-23.05L169.44-23.05 169.54-7.7Q169.54-2.7 169.49-0.1 169.44 2.5 167.99 4.6 166.54 6.7 164.04 7.9L164.04 7.9Q159.14 10.15 150.99 10.15 142.84 10.15 137.64 7.95L137.64 7.95Q136.39 7.4 135.82 6.78 135.24 6.15 135.24 4.58 135.24 3 135.87 2.25 136.49 1.5 137.34 1.5 138.19 1.5 139.44 2.1L139.44 2.1Q143.29 4 147.14 4L147.14 4Q148.89 4 150.29 3.63 151.69 3.25 152.77 2.1 153.84 0.95 153.84-0.85L153.84-0.85 153.79-3.5Q153.79-4 153.49-4L153.49-4Q153.34-4 153.19-3.85L153.19-3.85Q149.19 0 144.39 0 139.59 0 136.37-3.05 133.14-6.1 133.14-12.7 133.14-19.3 136.94-22.68 140.74-26.05 146.24-26.05 151.74-26.05 154.39-22.6L154.39-22.6Q154.44-23.9 155.34-24.6 156.24-25.3 157.34-25.4 158.44-25.5 161.34-25.5L161.34-25.5 166.64-25.4Q167.59-25.4 168.52-24.73 169.44-24.05 169.44-23.05ZM182.44-23.93Q184.74-25.05 187.17-25.55 189.59-26.05 193.17-26.05 196.74-26.05 199.99-25.18 203.24-24.3 204.84-22.8L204.84-22.8Q207.64-20.05 207.64-16.35L207.64-16.35Q207.64-10.55 197.84-10.55L197.84-10.55Q194.39-10.55 190.69-11.2L190.69-11.2Q190.84-7.9 191.92-6.55 192.99-5.2 195.74-5.2 198.49-5.2 200.29-5.8 202.09-6.4 203.19-7.03 204.29-7.65 205.07-7.65 205.84-7.65 206.39-6.95L206.39-6.95Q207.24-6.05 207.24-4.48 207.24-2.9 206.62-2.33 205.99-1.75 204.64-1.2L204.64-1.2Q199.89 0.8 191.14 0.8L191.14 0.8Q183.89 0.8 179.22-2.68 174.54-6.15 174.54-12.05L174.54-12.05Q174.54-14.9 175.59-17.28 176.64-19.65 178.39-21.23 180.14-22.8 182.44-23.93ZM194.04-20.35L194.04-20.35Q190.99-20.35 190.74-15.4L190.74-15.4Q193.14-15.2 193.24-15.2L193.24-15.2Q196.54-15.2 196.54-17.4L196.54-17.4Q196.54-20.35 194.04-20.35ZM216.54-35L216.54-35 229.94-35Q232.04-35 232.71-33.95 233.39-32.9 233.61-29.63 233.84-26.35 233.84-16.93 233.84-7.5 233.44-3.1L233.44-3.1Q233.29-1.95 232.41-1.05 231.54-0.15 230.09-0.05L230.09-0.05Q227.24 0.15 223.49 0.15 219.74 0.15 216.39-0.05L216.39-0.05Q214.94-0.15 214.06-1.05 213.19-1.95 213.04-3.1L213.04-3.1Q212.64-7.5 212.64-16.93 212.64-26.35 212.86-29.63 213.09-32.9 213.76-33.95 214.44-35 216.54-35ZM261.54-2.15L261.54-2.15 261.59-14.35Q261.59-15.85 260.84-16.6 260.09-17.35 258.96-17.35 257.84-17.35 256.91-16.57 255.99-15.8 255.99-14.4L255.99-14.4 255.99-11.35Q255.99-4.75 255.69-2.35L255.69-2.35Q255.54-1.5 254.84-0.85 254.14-0.2 252.36-0.08 250.59 0.05 248.84 0.05 247.09 0.05 242.89-0.15L242.89-0.15Q241.69-0.2 240.99-0.85 240.29-1.5 240.19-2.35L240.19-2.35Q239.84-5.6 239.84-12.3 239.84-19 240.04-21.48 240.24-23.95 240.79-24.7 241.34-25.45 243.04-25.45L243.04-25.45 252.79-25.45Q254.49-25.45 255.06-24.7 255.64-23.95 255.79-22.15L255.79-22.15 255.79-22.1Q259.64-26.1 265.16-26.1 270.69-26.1 273.84-23.4 276.99-20.7 277.06-15.95 277.14-11.2 277.14-7.45 277.14-3.7 277.09-2.4 277.04-1.1 276.41-0.53 275.79 0.05 273.99 0.05L273.99 0.05 264.39 0.15Q262.79 0.15 262.16-0.43 261.54-1 261.54-2.15ZM304.33-2.15L304.33-2.15 304.38-14.35Q304.38-15.85 303.63-16.6 302.88-17.35 301.76-17.35 300.63-17.35 299.71-16.57 298.78-15.8 298.78-14.4L298.78-14.4 298.78-11.35Q298.78-4.75 298.48-2.35L298.48-2.35Q298.33-1.5 297.63-0.85 296.93-0.2 295.16-0.08 293.38 0.05 291.63 0.05 289.88 0.05 285.68-0.15L285.68-0.15Q284.48-0.2 283.78-0.85 283.08-1.5 282.98-2.35L282.98-2.35Q282.63-5.6 282.63-12.3 282.63-19 282.83-21.48 283.03-23.95 283.58-24.7 284.13-25.45 285.83-25.45L285.83-25.45 295.58-25.45Q297.28-25.45 297.86-24.7 298.43-23.95 298.58-22.15L298.58-22.15 298.58-22.1Q302.43-26.1 307.96-26.1 313.48-26.1 316.63-23.4 319.78-20.7 319.86-15.95 319.93-11.2 319.93-7.45 319.93-3.7 319.88-2.4 319.83-1.1 319.21-0.53 318.58 0.05 316.78 0.05L316.78 0.05 307.18 0.15Q305.58 0.15 304.96-0.43 304.33-1 304.33-2.15Z" opacity="1" transform="matrix(1,0,0,1,0,0)" fill="white" class="wordmark-text-0" id="SvgjsPath1993"></path></svg></g></svg></g></svg></g></svg></g><g><svg viewBox="0 0 74.55472452004008 77.86521563653571" height="77.86521563653571" width="74.55472452004008"><g><svg xmlns="http://www.w3.org/2000/svg" xmlns:xlink="http://www.w3.org/1999/xlink" version="1.1" x="0" y="0" viewBox="20.959999999999997 19.67 58.081 60.66" enable-background="new 0 0 100 100" xml:space="preserve" height="77.86521563653571" width="74.55472452004008" class="icon-icon-0" data-fill-palette-color="accent" id="SvgjsSvg1992"><g fill="black"><g fill="black"><path d="M72.638 19.67H27.394c-3.547 0-6.434 2.873-6.434 6.404v47.231c0 4.859 2.243 7.024 7.277 7.024h9.397c0.156 0 0.283-0.126 0.283-0.283V72.17c0-0.656 0.297-1.157 0.886-1.491h3.186c0.573 0.324 0.851 0.814 0.851 1.491v7.877c0 0.156 0.126 0.283 0.283 0.283h13.525c0.156 0 0.283-0.126 0.283-0.283V72.17c0-0.676 0.281-1.164 0.856-1.491h3.186c0.578 0.334 0.872 0.833 0.872 1.491v7.877c0 0.156 0.126 0.283 0.283 0.283h9.646c5.027 0 7.267-2.165 7.267-7.024V26.075C79.04 22.544 76.169 19.67 72.638 19.67zM62.573 60.193c-0.547-0.72-1.233-1.028-2.289-1.028-0.665 0-1.668 0-2.461 1.049-1.624 2.586-4.592 4.13-7.939 4.13-3.336 0-6.303-1.544-7.953-4.148-0.713-0.952-1.606-1.031-2.459-1.031-1.033 0-1.732 0.318-2.282 1.049-1.649 2.625-4.527 4.13-7.895 4.13-1.369 0-2.678-0.251-3.893-0.748-0.023-0.163-0.041-0.334-0.041-0.506V28.106c0-2.316 1.617-3.936 3.934-3.936h41.176c2.317 0 3.934 1.62 3.934 3.936V63.09c0 0.168-0.018 0.336-0.044 0.506-1.215 0.497-2.512 0.748-3.862 0.748C67.121 64.344 64.237 62.839 62.573 60.193z" fill="black"></path><path d="M61.591 38.636l-7.732-1.123-3.455-7.005c-0.205-0.407-0.863-0.403-1.058 0l-3.453 7.005-7.732 1.123c-0.221 0.032-0.405 0.186-0.474 0.4-0.071 0.214-0.012 0.446 0.147 0.603l5.595 5.452-1.321 7.7c-0.039 0.221 0.053 0.444 0.235 0.575 0.101 0.076 0.223 0.113 0.345 0.113 0.094 0 0.189-0.023 0.274-0.067l6.913-3.637 6.915 3.637c0.196 0.099 0.44 0.087 0.619-0.046 0.182-0.131 0.274-0.354 0.235-0.575l-1.321-7.7 5.595-5.452c0.159-0.156 0.219-0.389 0.147-0.603C61.996 38.822 61.812 38.668 61.591 38.636z" fill="black"></path></g></g></svg></g></svg></g></svg></g><defs><mask></mask></defs></svg><rect width="395.52" height="63.712848386192256" fill="black" stroke="none" visibility="hidden"></rect></g></mask><linearGradient x1="0" x2="1" y1="0.578" y2="0.595" id="39bce863-a056-4f30-8b00-8c37ec4371b1"><stop stop-color="#6ee2f5" offset="0"></stop><stop stop-color="#6454f0" offset="1"></stop></linearGradient><rect width="395.52" height="63.712848386192256" fill="url(#39bce863-a056-4f30-8b00-8c37ec4371b1)" mask="url(#744f8608-31e9-446f-bba4-f535cf7d7c90)" data-fill-palette-color="primary"></rect><mask id="f5f4d29f-2903-4ce1-882f-c6b545b495d1"><g id="SvgjsG2005"><svg viewBox="0 0 395.52 63.712848386192256" height="63.712848386192256" width="395.52"><g><svg viewBox="0 0 483.3758161601347 77.86521563653571" height="63.712848386192256" width="395.52"><g transform="matrix(1,0,0,1,87.85581616013474,10.761401003312823)"><svg viewBox="0 0 395.52 56.34241362991006" height="56.34241362991006" width="395.52"><g id="SvgjsG2004"><svg viewBox="0 0 395.52 56.34241362991006" height="56.34241362991006" width="395.52" id="SvgjsSvg2003"><g><svg viewBox="0 0 395.52 56.34241362991006" height="56.34241362991006" width="395.52"><g transform="matrix(1,0,0,1,0,0)"><svg width="395.52" viewBox="3 -35 316.93 45.15" height="56.34241362991006" data-palette-color="url(#39bce863-a056-4f30-8b00-8c37ec4371b1)"></svg></g></svg></g></svg></g></svg></g><g><svg viewBox="0 0 74.55472452004008 77.86521563653571" height="77.86521563653571" width="74.55472452004008"><g><svg xmlns="http://www.w3.org/2000/svg" xmlns:xlink="http://www.w3.org/1999/xlink" version="1.1" x="0" y="0" viewBox="20.959999999999997 19.67 58.081 60.66" enable-background="new 0 0 100 100" xml:space="preserve" height="77.86521563653571" width="74.55472452004008" class="icon-icon-0" data-fill-palette-color="accent" id="SvgjsSvg2002"><g fill="white"><g fill="white"><path d="M72.638 19.67H27.394c-3.547 0-6.434 2.873-6.434 6.404v47.231c0 4.859 2.243 7.024 7.277 7.024h9.397c0.156 0 0.283-0.126 0.283-0.283V72.17c0-0.656 0.297-1.157 0.886-1.491h3.186c0.573 0.324 0.851 0.814 0.851 1.491v7.877c0 0.156 0.126 0.283 0.283 0.283h13.525c0.156 0 0.283-0.126 0.283-0.283V72.17c0-0.676 0.281-1.164 0.856-1.491h3.186c0.578 0.334 0.872 0.833 0.872 1.491v7.877c0 0.156 0.126 0.283 0.283 0.283h9.646c5.027 0 7.267-2.165 7.267-7.024V26.075C79.04 22.544 76.169 19.67 72.638 19.67zM62.573 60.193c-0.547-0.72-1.233-1.028-2.289-1.028-0.665 0-1.668 0-2.461 1.049-1.624 2.586-4.592 4.13-7.939 4.13-3.336 0-6.303-1.544-7.953-4.148-0.713-0.952-1.606-1.031-2.459-1.031-1.033 0-1.732 0.318-2.282 1.049-1.649 2.625-4.527 4.13-7.895 4.13-1.369 0-2.678-0.251-3.893-0.748-0.023-0.163-0.041-0.334-0.041-0.506V28.106c0-2.316 1.617-3.936 3.934-3.936h41.176c2.317 0 3.934 1.62 3.934 3.936V63.09c0 0.168-0.018 0.336-0.044 0.506-1.215 0.497-2.512 0.748-3.862 0.748C67.121 64.344 64.237 62.839 62.573 60.193z" fill="white"></path><path d="M61.591 38.636l-7.732-1.123-3.455-7.005c-0.205-0.407-0.863-0.403-1.058 0l-3.453 7.005-7.732 1.123c-0.221 0.032-0.405 0.186-0.474 0.4-0.071 0.214-0.012 0.446 0.147 0.603l5.595 5.452-1.321 7.7c-0.039 0.221 0.053 0.444 0.235 0.575 0.101 0.076 0.223 0.113 0.345 0.113 0.094 0 0.189-0.023 0.274-0.067l6.913-3.637 6.915 3.637c0.196 0.099 0.44 0.087 0.619-0.046 0.182-0.131 0.274-0.354 0.235-0.575l-1.321-7.7 5.595-5.452c0.159-0.156 0.219-0.389 0.147-0.603C61.996 38.822 61.812 38.668 61.591 38.636z" fill="white"></path></g></g></svg></g></svg></g></svg></g><defs><mask></mask></defs><mask><g id="SvgjsG2001"><svg viewBox="0 0 395.52 63.712848386192256" height="63.712848386192256" width="395.52"><g><svg viewBox="0 0 483.3758161601347 77.86521563653571" height="63.712848386192256" width="395.52"><g transform="matrix(1,0,0,1,87.85581616013474,10.761401003312823)"><svg viewBox="0 0 395.52 56.34241362991006" height="56.34241362991006" width="395.52"><g id="SvgjsG2000"><svg viewBox="0 0 395.52 56.34241362991006" height="56.34241362991006" width="395.52" id="SvgjsSvg1999"><g><svg viewBox="0 0 395.52 56.34241362991006" height="56.34241362991006" width="395.52"><g transform="matrix(1,0,0,1,0,0)"><svg width="395.52" viewBox="3 -35 316.93 45.15" height="56.34241362991006" data-palette-color="url(#39bce863-a056-4f30-8b00-8c37ec4371b1)"><path d="M6.9-35L6.9-35 20.3-35Q22.4-35 23.08-33.95 23.75-32.9 23.98-29.63 24.2-26.35 24.2-16.93 24.2-7.5 23.8-3.1L23.8-3.1Q23.65-1.95 22.78-1.05 21.9-0.15 20.45-0.05L20.45-0.05Q17.6 0.15 13.85 0.15 10.1 0.15 6.75-0.05L6.75-0.05Q5.3-0.15 4.42-1.05 3.55-1.95 3.4-3.1L3.4-3.1Q3-7.5 3-16.93 3-26.35 3.23-29.63 3.45-32.9 4.13-33.95 4.8-35 6.9-35ZM73-2.15L73-2.15 73.05-14.35Q73.05-15.85 72.3-16.6 71.55-17.35 70.42-17.35 69.3-17.35 68.37-16.57 67.45-15.8 67.45-14.4L67.45-14.4 67.5-7.15Q67.5-3.7 67.45-2.4 67.4-1.1 66.77-0.53 66.15 0.05 64.35 0.05L64.35 0.05 54.75 0.15Q53.15 0.15 52.52-0.43 51.9-1 51.9-2.15L51.9-2.15 51.95-14.35Q51.95-15.85 51.2-16.6 50.45-17.35 49.32-17.35 48.2-17.35 47.27-16.57 46.35-15.8 46.35-14.4L46.35-14.4 46.35-11.35Q46.35-4.75 46.05-2.35L46.05-2.35Q45.9-1.5 45.2-0.85 44.5-0.2 42.72-0.08 40.95 0.05 39.2 0.05 37.45 0.05 33.25-0.15L33.25-0.15Q32.05-0.2 31.35-0.85 30.65-1.5 30.55-2.35L30.55-2.35Q30.2-5.6 30.2-12.3 30.2-19 30.4-21.48 30.6-23.95 31.15-24.7 31.7-25.45 33.4-25.45L33.4-25.45 43.15-25.45Q44.85-25.45 45.42-24.7 46-23.95 46.15-22.15L46.15-22.15 46.15-22.1Q50-26.1 55.95-26.1L55.95-26.1Q59.6-26.1 62.3-24.7 65-23.3 66.3-20.6L66.3-20.6Q67.95-23.3 70.82-24.7 73.7-26.1 77.05-26.1L77.05-26.1Q82.15-26.1 85.3-23.4 88.45-20.7 88.52-15.95 88.6-11.2 88.6-7.45 88.6-3.7 88.55-2.4 88.5-1.1 87.87-0.53 87.25 0.05 85.45 0.05L85.45 0.05 75.85 0.15Q74.25 0.15 73.62-0.43 73-1 73-2.15ZM111.7-26.25L111.7-26.25Q128-26.25 128.15-15.65L128.15-15.65Q128.25-11.15 128.25-7.4 128.25-3.65 128.2-2.35 128.15-1.05 127.52-0.48 126.9 0.1 125.1 0.1L125.1 0.1 114.5 0.1Q112.9 0.1 112.3-0.48 111.7-1.05 111.65-2.2L111.65-2.2Q111.65-2.25 111.62-2.38 111.6-2.5 111.6-2.6L111.6-2.6Q108.3 0.8 102.6 0.8L102.6 0.8Q98.65 0.8 95.87-1.18 93.1-3.15 93.1-6.63 93.1-10.1 95.07-12.18 97.05-14.25 99.77-15 102.5-15.75 105.62-15.75 108.75-15.75 111.75-15.15L111.75-15.15 111.75-15.35Q111.75-17.85 110.77-18.95 109.8-20.05 107.62-20.05 105.45-20.05 104-19.68 102.55-19.3 101.8-18.9L101.8-18.9Q99.75-17.7 98.95-17.7 98.15-17.7 97.52-18.45 96.9-19.2 96.9-20.78 96.9-22.35 97.47-22.95 98.05-23.55 99.3-24.15L99.3-24.15Q103.65-26.25 111.7-26.25ZM109.35-5.8L109.35-5.8Q111.55-5.8 111.6-6.65L111.6-6.65Q111.7-8.3 111.7-11L111.7-11Q111.7-12.05 110.1-12.05 108.5-12.05 107.5-11.28 106.5-10.5 106.5-9 106.5-7.5 107.32-6.65 108.15-5.8 109.35-5.8ZM150.64-17.8L150.64-17.8Q147.69-17.8 147.69-13.48 147.69-9.15 150.54-9.15L150.54-9.15Q151.79-9.15 152.72-9.83 153.64-10.5 153.64-11.75L153.64-11.75 153.64-15.2Q153.64-16.4 152.72-17.1 151.79-17.8 150.64-17.8ZM169.44-23.05L169.44-23.05 169.54-7.7Q169.54-2.7 169.49-0.1 169.44 2.5 167.99 4.6 166.54 6.7 164.04 7.9L164.04 7.9Q159.14 10.15 150.99 10.15 142.84 10.15 137.64 7.95L137.64 7.95Q136.39 7.4 135.82 6.78 135.24 6.15 135.24 4.58 135.24 3 135.87 2.25 136.49 1.5 137.34 1.5 138.19 1.5 139.44 2.1L139.44 2.1Q143.29 4 147.14 4L147.14 4Q148.89 4 150.29 3.63 151.69 3.25 152.77 2.1 153.84 0.95 153.84-0.85L153.84-0.85 153.79-3.5Q153.79-4 153.49-4L153.49-4Q153.34-4 153.19-3.85L153.19-3.85Q149.19 0 144.39 0 139.59 0 136.37-3.05 133.14-6.1 133.14-12.7 133.14-19.3 136.94-22.68 140.74-26.05 146.24-26.05 151.74-26.05 154.39-22.6L154.39-22.6Q154.44-23.9 155.34-24.6 156.24-25.3 157.34-25.4 158.44-25.5 161.34-25.5L161.34-25.5 166.64-25.4Q167.59-25.4 168.52-24.73 169.44-24.05 169.44-23.05ZM182.44-23.93Q184.74-25.05 187.17-25.55 189.59-26.05 193.17-26.05 196.74-26.05 199.99-25.18 203.24-24.3 204.84-22.8L204.84-22.8Q207.64-20.05 207.64-16.35L207.64-16.35Q207.64-10.55 197.84-10.55L197.84-10.55Q194.39-10.55 190.69-11.2L190.69-11.2Q190.84-7.9 191.92-6.55 192.99-5.2 195.74-5.2 198.49-5.2 200.29-5.8 202.09-6.4 203.19-7.03 204.29-7.65 205.07-7.65 205.84-7.65 206.39-6.95L206.39-6.95Q207.24-6.05 207.24-4.48 207.24-2.9 206.62-2.33 205.99-1.75 204.64-1.2L204.64-1.2Q199.89 0.8 191.14 0.8L191.14 0.8Q183.89 0.8 179.22-2.68 174.54-6.15 174.54-12.05L174.54-12.05Q174.54-14.9 175.59-17.28 176.64-19.65 178.39-21.23 180.14-22.8 182.44-23.93ZM194.04-20.35L194.04-20.35Q190.99-20.35 190.74-15.4L190.74-15.4Q193.14-15.2 193.24-15.2L193.24-15.2Q196.54-15.2 196.54-17.4L196.54-17.4Q196.54-20.35 194.04-20.35ZM216.54-35L216.54-35 229.94-35Q232.04-35 232.71-33.95 233.39-32.9 233.61-29.63 233.84-26.35 233.84-16.93 233.84-7.5 233.44-3.1L233.44-3.1Q233.29-1.95 232.41-1.05 231.54-0.15 230.09-0.05L230.09-0.05Q227.24 0.15 223.49 0.15 219.74 0.15 216.39-0.05L216.39-0.05Q214.94-0.15 214.06-1.05 213.19-1.95 213.04-3.1L213.04-3.1Q212.64-7.5 212.64-16.93 212.64-26.35 212.86-29.63 213.09-32.9 213.76-33.95 214.44-35 216.54-35ZM261.54-2.15L261.54-2.15 261.59-14.35Q261.59-15.85 260.84-16.6 260.09-17.35 258.96-17.35 257.84-17.35 256.91-16.57 255.99-15.8 255.99-14.4L255.99-14.4 255.99-11.35Q255.99-4.75 255.69-2.35L255.69-2.35Q255.54-1.5 254.84-0.85 254.14-0.2 252.36-0.08 250.59 0.05 248.84 0.05 247.09 0.05 242.89-0.15L242.89-0.15Q241.69-0.2 240.99-0.85 240.29-1.5 240.19-2.35L240.19-2.35Q239.84-5.6 239.84-12.3 239.84-19 240.04-21.48 240.24-23.95 240.79-24.7 241.34-25.45 243.04-25.45L243.04-25.45 252.79-25.45Q254.49-25.45 255.06-24.7 255.64-23.95 255.79-22.15L255.79-22.15 255.79-22.1Q259.64-26.1 265.16-26.1 270.69-26.1 273.84-23.4 276.99-20.7 277.06-15.95 277.14-11.2 277.14-7.45 277.14-3.7 277.09-2.4 277.04-1.1 276.41-0.53 275.79 0.05 273.99 0.05L273.99 0.05 264.39 0.15Q262.79 0.15 262.16-0.43 261.54-1 261.54-2.15ZM304.33-2.15L304.33-2.15 304.38-14.35Q304.38-15.85 303.63-16.6 302.88-17.35 301.76-17.35 300.63-17.35 299.71-16.57 298.78-15.8 298.78-14.4L298.78-14.4 298.78-11.35Q298.78-4.75 298.48-2.35L298.48-2.35Q298.33-1.5 297.63-0.85 296.93-0.2 295.16-0.08 293.38 0.05 291.63 0.05 289.88 0.05 285.68-0.15L285.68-0.15Q284.48-0.2 283.78-0.85 283.08-1.5 282.98-2.35L282.98-2.35Q282.63-5.6 282.63-12.3 282.63-19 282.83-21.48 283.03-23.95 283.58-24.7 284.13-25.45 285.83-25.45L285.83-25.45 295.58-25.45Q297.28-25.45 297.86-24.7 298.43-23.95 298.58-22.15L298.58-22.15 298.58-22.1Q302.43-26.1 307.96-26.1 313.48-26.1 316.63-23.4 319.78-20.7 319.86-15.95 319.93-11.2 319.93-7.45 319.93-3.7 319.88-2.4 319.83-1.1 319.21-0.53 318.58 0.05 316.78 0.05L316.78 0.05 307.18 0.15Q305.58 0.15 304.96-0.43 304.33-1 304.33-2.15Z" opacity="1" transform="matrix(1,0,0,1,0,0)" fill="black" class="wordmark-text-0" id="SvgjsPath1998"></path></svg></g></svg></g></svg></g></svg></g><g><svg viewBox="0 0 74.55472452004008 77.86521563653571" height="77.86521563653571" width="74.55472452004008"><g><svg xmlns="http://www.w3.org/2000/svg" xmlns:xlink="http://www.w3.org/1999/xlink" version="1.1" x="0" y="0" viewBox="20.959999999999997 19.67 58.081 60.66" enable-background="new 0 0 100 100" xml:space="preserve" height="77.86521563653571" width="74.55472452004008" class="icon-icon-0" data-fill-palette-color="accent" id="SvgjsSvg1997"><g fill="black"><g fill="black"><path d="M72.638 19.67H27.394c-3.547 0-6.434 2.873-6.434 6.404v47.231c0 4.859 2.243 7.024 7.277 7.024h9.397c0.156 0 0.283-0.126 0.283-0.283V72.17c0-0.656 0.297-1.157 0.886-1.491h3.186c0.573 0.324 0.851 0.814 0.851 1.491v7.877c0 0.156 0.126 0.283 0.283 0.283h13.525c0.156 0 0.283-0.126 0.283-0.283V72.17c0-0.676 0.281-1.164 0.856-1.491h3.186c0.578 0.334 0.872 0.833 0.872 1.491v7.877c0 0.156 0.126 0.283 0.283 0.283h9.646c5.027 0 7.267-2.165 7.267-7.024V26.075C79.04 22.544 76.169 19.67 72.638 19.67zM62.573 60.193c-0.547-0.72-1.233-1.028-2.289-1.028-0.665 0-1.668 0-2.461 1.049-1.624 2.586-4.592 4.13-7.939 4.13-3.336 0-6.303-1.544-7.953-4.148-0.713-0.952-1.606-1.031-2.459-1.031-1.033 0-1.732 0.318-2.282 1.049-1.649 2.625-4.527 4.13-7.895 4.13-1.369 0-2.678-0.251-3.893-0.748-0.023-0.163-0.041-0.334-0.041-0.506V28.106c0-2.316 1.617-3.936 3.934-3.936h41.176c2.317 0 3.934 1.62 3.934 3.936V63.09c0 0.168-0.018 0.336-0.044 0.506-1.215 0.497-2.512 0.748-3.862 0.748C67.121 64.344 64.237 62.839 62.573 60.193z" fill="black"></path><path d="M61.591 38.636l-7.732-1.123-3.455-7.005c-0.205-0.407-0.863-0.403-1.058 0l-3.453 7.005-7.732 1.123c-0.221 0.032-0.405 0.186-0.474 0.4-0.071 0.214-0.012 0.446 0.147 0.603l5.595 5.452-1.321 7.7c-0.039 0.221 0.053 0.444 0.235 0.575 0.101 0.076 0.223 0.113 0.345 0.113 0.094 0 0.189-0.023 0.274-0.067l6.913-3.637 6.915 3.637c0.196 0.099 0.44 0.087 0.619-0.046 0.182-0.131 0.274-0.354 0.235-0.575l-1.321-7.7 5.595-5.452c0.159-0.156 0.219-0.389 0.147-0.603C61.996 38.822 61.812 38.668 61.591 38.636z" fill="black"></path></g></g></svg></g></svg></g></svg></g><defs><mask></mask></defs></svg><rect width="395.52" height="63.712848386192256" fill="black" stroke="none" visibility="hidden"></rect></g></mask></svg><rect width="395.52" height="63.712848386192256" fill="black" stroke="none" visibility="hidden"></rect></g></mask><linearGradient x1="0" x2="1" y1="0.578" y2="0.595" id="090249bf-1df9-48ba-b84a-c9eec3568391"><stop stop-color="#6ee2f5" offset="0"></stop><stop stop-color="#6454f0" offset="1"></stop></linearGradient><rect width="395.52" height="63.712848386192256" fill="url(#090249bf-1df9-48ba-b84a-c9eec3568391)" mask="url(#f5f4d29f-2903-4ce1-882f-c6b545b495d1)" data-fill-palette-color="accent"></rect></svg><rect width="395.52" height="63.712848386192256" fill="none" stroke="none" visibility="hidden"></rect></g></svg></g></svg>